<svg enable-background="new 0 0 352.666 352.666" viewBox="0 0 352.666 352.666" xmlns="http://www.w3.org/2000/svg"><path d="m307.167 249.56-12.035 38.705c-6.414 20.625-25.501 34.679-47.1 34.679h-92.153c-13.68 0-24.769-11.09-24.769-24.769v-103.984h66.712c17.51 0 31.705 14.195 31.705 31.705v8.16c0 2.424 1.965 4.389 4.389 4.389h13.679c2.424 0 4.389-1.965 4.389-4.389v-120.021c0-2.424-1.965-4.389-4.389-4.389h-13.679c-2.424 0-4.389 1.965-4.389 4.389v12.784c0 17.51-14.195 31.705-31.705 31.705h-66.712v-104.032c0-13.68 11.09-24.769 24.769-24.769h87.518c22.617 0 40.952 18.335 40.952 40.952v24.674c0 2.424 1.965 4.389 4.389 4.389h15.995c2.289 0 4.194-1.759 4.375-4.042l6.737-84.769c.468-5.89-4.185-10.927-10.093-10.927h-277.96c-3.86 0-6.989 3.129-6.989 6.989v15.745c0 3.86 3.129 6.989 6.989 6.989h17.78c13.68 0 24.769 11.09 24.769 24.769v243.682c0 13.68-11.09 24.769-24.769 24.769h-17.78c-3.86 0-6.989 3.129-6.989 6.989v15.745c0 3.86 3.129 6.989 6.989 6.989h280.196c5.014 0 9.273-3.67 10.014-8.63l13.812-92.525c.396-2.653-1.659-5.037-4.341-5.037h-16.114c-1.923 0-3.621 1.25-4.192 3.086z" fill="#e65300"/></svg>